<svg xmlns="http://www.w3.org/2000/svg" width="86" height="81" fill="none"><path fill="#6A7F39" fill-opacity=".8" d="M48.968 39.23c.816-.04 1.387-.215 1.387-.215s-.302 1.428-.053 2.602c-8.361 7.198-25.534 18.81-46.007 14.925l.501-2.64c8.683 1.648 16.755.326 23.746-2.247-3.085-.597-5.727-3.048-5.533-7.45.171-3.91 2.328-5.247 4.393-6.528 1.585-.983 3.116-1.933 3.654-3.988.741-2.827-1.594-6.772-1.594-6.772 13.953 8.277 7.382 20.862 7.382 20.862l-.013.024-.013.023c5.083-2.834 9.234-6.044 12.15-8.596"/><path fill="#FFD93F" d="M72.48 23.865c2.538-2.938 2.653-7.36.077-10.43a8.054 8.054 0 0 0-11.345-.994 8 8 0 0 0-1.016 1.03 8.4 8.4 0 0 0-.77-1.1 8.284 8.284 0 1 0-12.69 10.65c.215.257.447.494.687.719a7.76 7.76 0 0 0-3.857 1.73 7.8 7.8 0 0 0-.962 10.991 7.78 7.78 0 0 0 6.364 2.769c.816-.04 1.387-.215 1.387-.215s-.302 1.428-.053 2.602a7.86 7.86 0 0 0 1.73 3.751 7.914 7.914 0 0 0 13.624-7.433c2.895 2.172 7.002 2.159 9.895-.269a7.97 7.97 0 0 0 .983-11.228 7.92 7.92 0 0 0-4.055-2.573M54.5 31.702a5.815 5.815 0 1 0 8.91-7.475 5.815 5.815 0 0 0-8.91 7.475"/><path fill="#6A7F39" fill-opacity=".8" d="M54.5 31.702a5.815 5.815 0 1 0 8.91-7.475 5.815 5.815 0 0 0-8.91 7.475"/></svg>